<svg width="24" height="24" viewBox="0 0 24 24" fill="none" xmlns="http://www.w3.org/2000/svg">
<path fill-rule="evenodd" clip-rule="evenodd" d="M10.6297 7.45234C10.8796 7.20252 10.8796 6.79748 10.6297 6.54766C10.3799 6.29784 9.97489 6.29784 9.72507 6.54766L4.54772 11.725C4.42775 11.845 4.36035 12.0077 4.36035 12.1773C4.36035 12.347 4.42775 12.5097 4.54772 12.6297L9.72507 17.807C9.97489 18.0569 10.3799 18.0569 10.6297 17.807C10.8796 17.5572 10.8796 17.1522 10.6297 16.9024L6.54434 12.8169H19.4996C19.8529 12.8169 20.1393 12.5305 20.1393 12.1772C20.1393 11.8239 19.8529 11.5375 19.4996 11.5375H6.54454L10.6297 7.45234Z" fill="currentColor"/>
</svg>
