<svg width="25" height="24" viewBox="0 0 25 24" fill="none" xmlns="http://www.w3.org/2000/svg">
<path d="M6.12455 9.08414C6.30552 8.58667 7.02781 8.58667 7.20878 9.08414L7.70365 10.4445C7.76158 10.6037 7.89019 10.729 8.05368 10.7854L9.45028 11.2674C9.96102 11.4437 9.96102 12.1472 9.45028 12.3235L8.05368 12.8055C7.89019 12.8619 7.76158 12.9872 7.70365 13.1464L7.20878 14.5068C7.02781 15.0042 6.30552 15.0042 6.12455 14.5068L5.62968 13.1464C5.57176 12.9872 5.44314 12.8619 5.27966 12.8055L3.88305 12.3235C3.37232 12.1472 3.37232 11.4437 3.88305 11.2674L5.27966 10.7854C5.44314 10.729 5.57176 10.6037 5.62969 10.4445L6.12455 9.08414Z" fill="currentColor"/>
<path d="M14.0412 16.7952C14.2222 16.2977 14.9445 16.2977 15.1255 16.7952L15.6203 18.1555C15.6782 18.3148 15.8069 18.44 15.9703 18.4964L17.3669 18.9785C17.8777 19.1547 17.8777 19.8583 17.3669 20.0345L15.9703 20.5165C15.8069 20.573 15.6782 20.6982 15.6203 20.8575L15.1255 22.2178C14.9445 22.7153 14.2222 22.7153 14.0412 22.2178L13.5464 20.8575C13.4884 20.6982 13.3598 20.573 13.1963 20.5165L11.7997 20.0345C11.289 19.8583 11.289 19.1547 11.7997 18.9785L13.1963 18.4964C13.3598 18.44 13.4884 18.3148 13.5464 18.1555L14.0412 16.7952Z" fill="currentColor"/>
<path d="M16.1343 1.5671C16.4094 0.810967 17.5073 0.810967 17.7823 1.5671L18.7251 4.15866C18.8131 4.40069 19.0086 4.5911 19.2571 4.67686L21.9178 5.59514C22.6941 5.86306 22.6941 6.93239 21.9178 7.20032L19.2571 8.11859C19.0086 8.20435 18.8131 8.39476 18.7251 8.6368L17.7823 11.2284C17.5073 11.9845 16.4094 11.9845 16.1343 11.2284L15.1916 8.6368C15.1035 8.39476 14.908 8.20435 14.6596 8.11859L11.9989 7.20032C11.2226 6.93239 11.2226 5.86306 11.9989 5.59514L14.6596 4.67686C14.908 4.5911 15.1035 4.40069 15.1916 4.15866L16.1343 1.5671Z" fill="currentColor"/>
</svg>
