<svg width="24" height="24" viewBox="0 0 24 24" fill="none" xmlns="http://www.w3.org/2000/svg">
<path fill-rule="evenodd" clip-rule="evenodd" d="M8.62404 7.485C8.31779 7.17875 7.82125 7.17875 7.515 7.485C7.20875 7.79125 7.20875 8.28779 7.515 8.59404L10.9213 12.0004L7.51538 15.4063C7.20913 15.7126 7.20913 16.2091 7.51538 16.5154C7.82163 16.8216 8.31817 16.8216 8.62442 16.5154L12.0304 13.1094L15.4367 16.5158C15.743 16.822 16.2395 16.822 16.5458 16.5158C16.852 16.2095 16.852 15.713 16.5458 15.4067L13.1394 12.0004L16.5461 8.59366C16.8524 8.28741 16.8524 7.79087 16.5461 7.48462C16.2399 7.17837 15.7434 7.17837 15.4371 7.48462L12.0304 10.8913L8.62404 7.485Z" fill="#0F0F0F"/>
</svg>
