<svg width="25" height="24" viewBox="0 0 25 24" fill="none" xmlns="http://www.w3.org/2000/svg">
<g clip-path="url(#clip0_7076_22)">
<path fill-rule="evenodd" clip-rule="evenodd" d="M2.50252 12.3037C2.49135 12.491 2.51789 12.7181 2.57099 13.1723L2.99703 16.8173C3.18931 18.4624 4.06834 19.9494 5.41691 20.9108C6.41053 21.6193 7.60043 22 8.82073 22H12.6633C13.8836 22 15.0735 21.6193 16.0672 20.9108C16.9215 20.3017 17.5873 19.4818 18.0096 18.5443H20.3117C22.5138 18.5443 24.299 16.7591 24.299 14.557C24.299 12.3548 22.5138 10.5696 20.3117 10.5696H17.8887C17.688 10.4585 17.4667 10.3785 17.231 10.3366C17.0463 10.3038 16.8176 10.3038 16.3603 10.3038H5.12376C4.66642 10.3038 4.43775 10.3038 4.25307 10.3366C3.28496 10.5088 2.56109 11.3222 2.50252 12.3037ZM18.9687 12.1646C18.9745 12.2105 18.9788 12.2569 18.9816 12.3037C18.9927 12.4909 18.9662 12.7181 18.9131 13.1723L18.487 16.8173C18.4819 16.8615 18.4762 16.9055 18.4701 16.9494H20.3117C21.633 16.9494 22.7041 15.8783 22.7041 14.557C22.7041 13.2357 21.633 12.1646 20.3117 12.1646H18.9687Z" fill="currentColor"/>
<path fill-rule="evenodd" clip-rule="evenodd" d="M11.3061 1.23357C11.6176 1.545 11.6176 2.04993 11.3061 2.36136C11.0303 2.63717 11.0303 3.08435 11.3061 3.36016C12.2048 4.25883 12.2048 5.71586 11.3061 6.61453C10.9947 6.92596 10.4898 6.92596 10.1783 6.61453C9.8669 6.3031 9.8669 5.79817 10.1783 5.48674C10.4541 5.21093 10.4541 4.76375 10.1783 4.48795C9.27966 3.58928 9.27966 2.13224 10.1783 1.23357C10.4898 0.922142 10.9947 0.922142 11.3061 1.23357Z" fill="currentColor"/>
<path fill-rule="evenodd" clip-rule="evenodd" d="M6.52115 2.82851C6.83258 3.13994 6.83258 3.64487 6.52115 3.9563L6.39768 4.07977C6.13904 4.33841 6.10994 4.74788 6.32941 5.04051C7.02511 5.96811 6.93286 7.26611 6.11297 8.086L5.9895 8.20947C5.67807 8.5209 5.17314 8.5209 4.86171 8.20947C4.55028 7.89803 4.55028 7.39311 4.86171 7.08167L4.98518 6.95821C5.24382 6.69956 5.27292 6.29009 5.05346 5.99747C4.35776 5.06987 4.45 3.77187 5.26989 2.95198L5.39336 2.82851C5.70479 2.51708 6.20972 2.51708 6.52115 2.82851Z" fill="currentColor"/>
<path fill-rule="evenodd" clip-rule="evenodd" d="M16.6224 2.82851C16.9338 3.13994 16.9338 3.64487 16.6224 3.9563L16.499 4.07977C16.2403 4.33841 16.2112 4.74788 16.4307 5.04051C17.1264 5.96811 17.0341 7.26611 16.2142 8.086L16.0908 8.20947C15.7793 8.5209 15.2744 8.5209 14.963 8.20947C14.6516 7.89803 14.6516 7.39311 14.963 7.08167L15.0864 6.95821C15.3451 6.69956 15.3742 6.29009 15.1547 5.99747C14.459 5.06987 14.5513 3.77187 15.3712 2.95198L15.4946 2.82851C15.8061 2.51708 16.311 2.51708 16.6224 2.82851Z" fill="currentColor"/>
</g>
<defs>
<clipPath id="clip0_7076_22">
<rect width="24" height="24" fill="white" transform="translate(0.5)"/>
</clipPath>
</defs>
</svg>
