<svg width="24" height="24" viewBox="0 0 24 24" fill="none" xmlns="http://www.w3.org/2000/svg">
<path fill-rule="evenodd" clip-rule="evenodd" d="M11.9989 3.49969C7.30482 3.49969 3.49951 7.305 3.49951 11.9991C3.49951 16.6932 7.30482 20.4985 11.9989 20.4985C16.693 20.4985 20.4983 16.6932 20.4983 11.9991C20.4983 7.305 16.693 3.49969 11.9989 3.49969ZM4.66812 11.9991C4.66812 7.95041 7.95022 4.6683 11.9989 4.6683C16.0476 4.6683 19.3297 7.95041 19.3297 11.9991C19.3297 16.0478 16.0476 19.3299 11.9989 19.3299C7.95022 19.3299 4.66812 16.0478 4.66812 11.9991ZM10.9118 13.8064V13.9241H12.5476V13.8064C12.5509 13.4865 12.5918 13.2179 12.6704 13.0006C12.7523 12.7802 12.8767 12.5886 13.0437 12.4256C13.214 12.2626 13.4318 12.1057 13.6971 11.9548C13.9984 11.7888 14.2587 11.6001 14.4782 11.3889C14.6976 11.1776 14.8662 10.9361 14.9841 10.6645C15.1053 10.3929 15.1659 10.085 15.1659 9.74096C15.1659 9.2309 15.0316 8.79025 14.7631 8.41901C14.4978 8.04476 14.1261 7.75653 13.648 7.55431C13.1731 7.3521 12.6229 7.25099 11.9974 7.25099C11.4243 7.25099 10.9003 7.34757 10.4254 7.54073C9.95384 7.73389 9.57395 8.02364 9.28575 8.40996C9.00083 8.79628 8.85019 9.27617 8.83381 9.84962H10.5826C10.599 9.56591 10.6743 9.332 10.8086 9.1479C10.9461 8.96077 11.1181 8.82194 11.3244 8.73139C11.534 8.63783 11.7551 8.59105 11.9876 8.59105C12.2397 8.59105 12.4673 8.63934 12.6704 8.73592C12.8767 8.8325 13.0405 8.96832 13.1616 9.14337C13.2828 9.31842 13.3434 9.52516 13.3434 9.7636C13.3434 9.97487 13.2975 10.1665 13.2058 10.3386C13.1141 10.5076 12.9881 10.6615 12.8276 10.8003C12.6704 10.9361 12.4919 11.0614 12.2921 11.1761C12.0007 11.3421 11.7534 11.5247 11.5504 11.7239C11.3473 11.9201 11.1901 12.1796 11.0788 12.5026C10.9707 12.8255 10.915 13.2601 10.9118 13.8064ZM11.0051 16.4594C11.218 16.6525 11.4718 16.7491 11.7665 16.7491C11.963 16.7491 12.1415 16.7053 12.302 16.6178C12.4657 16.5273 12.5967 16.4065 12.695 16.2556C12.7965 16.1047 12.8472 15.9372 12.8472 15.7531C12.8472 15.4815 12.7392 15.2491 12.523 15.0559C12.3102 14.8628 12.058 14.7662 11.7665 14.7662C11.4718 14.7662 11.218 14.8628 11.0051 15.0559C10.7922 15.2491 10.6858 15.4815 10.6858 15.7531C10.6858 16.0308 10.7922 16.2662 11.0051 16.4594Z" fill="currentColor"/>
</svg>
