<svg width="25" height="24" viewBox="0 0 25 24" fill="none" xmlns="http://www.w3.org/2000/svg">
<path d="M22.5247 11.7579C22.8251 11.4555 22.8251 10.9653 22.5247 10.6629L16.1572 4.25356C15.5056 3.59766 14.9622 3.05071 14.4729 2.6749C13.9564 2.27822 13.4106 2 12.75 2C12.0894 2 11.5436 2.27822 11.0271 2.6749C10.5378 3.05071 9.99442 3.59766 9.34283 4.25357L2.9753 10.6629C2.6749 10.9653 2.6749 11.4555 2.9753 11.7579C3.27571 12.0603 3.76276 12.0603 4.06316 11.7579L4.50384 11.3143V14.7035C4.50384 18.0304 6.77882 20.9196 9.99662 21.6793C11.8076 22.1069 13.6924 22.1069 15.5034 21.6793C18.7212 20.9196 20.9961 18.0304 20.9961 14.7035V11.3143L21.4368 11.7579C21.7372 12.0603 22.2243 12.0603 22.5247 11.7579Z" fill="currentColor"/>
</svg>
