<svg width="25" height="24" viewBox="0 0 25 24" fill="none" xmlns="http://www.w3.org/2000/svg">
<path d="M8.00501 13.38V20.21C8.00501 20.6184 7.84276 21.0101 7.55396 21.2989C7.26515 21.5878 6.87345 21.75 6.46501 21.75H4.65501C4.45194 21.7513 4.25061 21.7125 4.06261 21.6357C3.87461 21.5589 3.70366 21.4456 3.5596 21.3025C3.41554 21.1594 3.3012 20.9891 3.22319 20.8017C3.14517 20.6142 3.10501 20.4131 3.10501 20.21V13.38C3.10368 13.1761 3.14287 12.9739 3.22029 12.7853C3.29772 12.5966 3.41184 12.4252 3.55604 12.281C3.70023 12.1368 3.87163 12.0227 4.06029 11.9453C4.24894 11.8679 4.45109 11.8287 4.65501 11.83H6.46501C6.66809 11.83 6.86917 11.8702 7.05666 11.9482C7.24416 12.0262 7.41437 12.1405 7.55751 12.2846C7.70064 12.4286 7.81387 12.5996 7.89067 12.7876C7.96747 12.9756 8.00633 13.1769 8.00501 13.38ZM14.705 3.8V20.21C14.705 20.4131 14.6649 20.6142 14.5868 20.8017C14.5088 20.9891 14.3945 21.1594 14.2504 21.3025C14.1064 21.4456 13.9354 21.5589 13.7474 21.6357C13.5594 21.7125 13.3581 21.7513 13.155 21.75H11.345C10.9357 21.75 10.5429 21.5881 10.2525 21.2996C9.96212 21.011 9.79765 20.6193 9.79501 20.21V3.8C9.79764 3.38972 9.96178 2.997 10.2519 2.70688C10.542 2.41677 10.9347 2.25262 11.345 2.25H13.155C13.5661 2.25 13.9603 2.4133 14.251 2.70398C14.5417 2.99467 14.705 3.38891 14.705 3.8ZM21.395 8.98V20.21C21.395 20.6184 21.2328 21.0101 20.944 21.2989C20.6552 21.5878 20.2634 21.75 19.855 21.75H18.045C17.8419 21.7513 17.6406 21.7125 17.4526 21.6357C17.2646 21.5589 17.0937 21.4456 16.9496 21.3025C16.8055 21.1594 16.6912 20.9891 16.6132 20.8017C16.5352 20.6142 16.495 20.4131 16.495 20.21V8.98C16.495 8.77645 16.5351 8.5749 16.613 8.38684C16.6909 8.19879 16.8051 8.02792 16.949 7.88398C17.0929 7.74005 17.2638 7.62588 17.4519 7.54799C17.6399 7.47009 17.8415 7.43 18.045 7.43H19.895C20.2974 7.44299 20.6789 7.612 20.9588 7.90129C21.2388 8.19058 21.3952 8.57743 21.395 8.98Z" fill="#C9CDDE"/>
</svg>
