<svg width="24" height="24" viewBox="0 0 24 24" fill="none" xmlns="http://www.w3.org/2000/svg">
<path d="M12.3033 7.4339L16.8016 10.501C17.5388 11.0037 17.9073 11.255 18.0364 11.57C18.1494 11.8456 18.1494 12.1544 18.0364 12.43C17.9073 12.745 17.5388 12.9963 16.8016 13.499L12.3033 16.5661C11.3835 17.1932 10.9236 17.5068 10.5416 17.4868C10.2089 17.4694 9.90063 17.3065 9.69877 17.0414C9.46703 16.737 9.46703 16.1804 9.46703 15.0671V8.93285C9.46703 7.81961 9.46703 7.26298 9.69877 6.95862C9.90063 6.69352 10.2089 6.53062 10.5416 6.51319C10.9236 6.49318 11.3835 6.80675 12.3033 7.4339Z" fill="#0F0F0F"/>
</svg>
