<svg width="24" height="24" viewBox="0 0 24 24" fill="none" xmlns="http://www.w3.org/2000/svg">
<path fill-rule="evenodd" clip-rule="evenodd" d="M12.6998 7.00001C12.6998 6.61341 12.3864 6.30001 11.9998 6.30001C11.6132 6.30001 11.2998 6.61341 11.2998 7.00001V11.3H7.00029C6.61369 11.3 6.30029 11.6134 6.30029 12C6.30029 12.3866 6.61369 12.7 7.00029 12.7H11.2998V17C11.2998 17.3866 11.6132 17.7 11.9998 17.7C12.3864 17.7 12.6998 17.3866 12.6998 17V12.7H17.0003C17.3869 12.7 17.7003 12.3866 17.7003 12C17.7003 11.6134 17.3869 11.3 17.0003 11.3H12.6998V7.00001Z" fill="currentColor"/>
</svg>
