<svg width="25" height="24" viewBox="0 0 25 24" fill="none" xmlns="http://www.w3.org/2000/svg">
<path fill-rule="evenodd" clip-rule="evenodd" d="M9.8266 4.09455C10.6918 3.70687 11.4413 4.58263 11.1706 5.34301C10.2523 7.9231 10.8165 10.8535 12.7228 12.759C14.6387 14.6742 17.5884 15.2371 20.1769 14.3022C20.9301 14.0302 21.7821 14.7724 21.4097 15.6169C21.3987 15.6419 21.3876 15.6668 21.3764 15.6917C20.7137 17.1614 19.6535 18.5435 18.282 19.4701C16.8201 20.4577 15.096 20.9854 13.3317 20.9854H13.3308C11.279 20.9831 9.29185 20.2676 7.70998 18.9612C6.12811 17.6549 5.05003 15.8391 4.66065 13.8251C4.27126 11.8112 4.59484 9.72458 5.57587 7.92301C6.5059 6.21512 8.06978 4.8879 9.80117 4.10599L9.8266 4.09455Z" fill="#0F0F0F"/>
</svg>
