<svg width="24" height="24" viewBox="0 0 24 24" fill="none" xmlns="http://www.w3.org/2000/svg">
<mask id="path-1-inside-1_1_1127" fill="white">
<path d="M11.9995 20.3043C11.9995 20.6886 12.3116 21.003 12.6948 20.9733C14.1473 20.8608 15.5546 20.3969 16.7935 19.6171C18.2292 18.7135 19.3803 17.4225 20.1141 15.893C20.8478 14.3635 21.1344 12.6577 20.9406 10.9724C20.7469 9.28707 20.0808 7.69082 19.0191 6.36769C17.9574 5.04456 16.5434 4.04843 14.9401 3.49415C13.3368 2.93987 11.6095 2.85001 9.95734 3.23494C8.30518 3.61987 6.79544 4.46391 5.60221 5.66974C4.57257 6.71026 3.81478 7.98361 3.39019 9.37729C3.27818 9.74496 3.51747 10.1177 3.89269 10.201C4.26791 10.2843 4.63651 10.0462 4.75371 9.6802C5.11808 8.54221 5.74651 7.50272 6.59156 6.64875C7.60025 5.6294 8.87651 4.91589 10.2732 4.59049C11.6698 4.26509 13.13 4.34105 14.4854 4.80961C15.8407 5.27817 17.0361 6.12025 17.9335 7.23876C18.831 8.35727 19.3941 9.70665 19.5579 11.1313C19.7217 12.556 19.4794 13.998 18.8592 15.291C18.2389 16.5839 17.2658 17.6753 16.0521 18.4392C15.0353 19.0791 13.8844 19.4674 12.6945 19.5765C12.3117 19.6116 11.9995 19.9199 11.9995 20.3043Z"/>
</mask>
<path d="M11.9995 20.3043C11.9995 20.6886 12.3116 21.003 12.6948 20.9733C14.1473 20.8608 15.5546 20.3969 16.7935 19.6171C18.2292 18.7135 19.3803 17.4225 20.1141 15.893C20.8478 14.3635 21.1344 12.6577 20.9406 10.9724C20.7469 9.28707 20.0808 7.69082 19.0191 6.36769C17.9574 5.04456 16.5434 4.04843 14.9401 3.49415C13.3368 2.93987 11.6095 2.85001 9.95734 3.23494C8.30518 3.61987 6.79544 4.46391 5.60221 5.66974C4.57257 6.71026 3.81478 7.98361 3.39019 9.37729C3.27818 9.74496 3.51747 10.1177 3.89269 10.201C4.26791 10.2843 4.63651 10.0462 4.75371 9.6802C5.11808 8.54221 5.74651 7.50272 6.59156 6.64875C7.60025 5.6294 8.87651 4.91589 10.2732 4.59049C11.6698 4.26509 13.13 4.34105 14.4854 4.80961C15.8407 5.27817 17.0361 6.12025 17.9335 7.23876C18.831 8.35727 19.3941 9.70665 19.5579 11.1313C19.7217 12.556 19.4794 13.998 18.8592 15.291C18.2389 16.5839 17.2658 17.6753 16.0521 18.4392C15.0353 19.0791 13.8844 19.4674 12.6945 19.5765C12.3117 19.6116 11.9995 19.9199 11.9995 20.3043Z" fill="currentColor" stroke="currentColor" stroke-width="1.07463" mask="url(#path-1-inside-1_1_1127)"/>
</svg>
