<svg width="17" height="16" viewBox="0 0 17 16" fill="none" xmlns="http://www.w3.org/2000/svg">
<path fill-rule="evenodd" clip-rule="evenodd" d="M6.39341 9.04392C5.89784 9.55676 5.33084 9.99538 4.70996 10.3462C4.08057 10.7209 3.49772 11.1687 2.97356 11.6803C2.53072 10.6838 2.39435 9.57814 2.58182 8.50395C2.79658 7.01785 3.466 5.63463 4.4982 4.54413C5.69653 3.44421 7.1533 2.66484 8.73331 2.27835C9.40889 2.05284 10.1224 1.96295 10.8328 2.01382C11.5432 2.06469 12.2366 2.25533 12.8731 2.5748C12.4409 2.98383 11.961 3.33932 11.4438 3.63358C10.666 4.07247 9.95332 4.6177 9.32622 5.25351C8.68709 5.88028 8.13831 6.59297 7.6957 7.37106C7.3464 7.9898 6.90756 8.55352 6.39341 9.04392ZM10.8207 6.7568C11.3129 6.24027 11.8805 5.8012 12.5041 5.4545C13.1226 5.09386 13.698 4.66406 14.2193 4.17339C14.5896 5.34476 14.5896 6.60185 14.2193 7.77323C13.8328 9.35323 13.0535 10.81 11.9535 12.0083C10.863 13.0405 9.47983 13.7099 7.99372 13.9247C7.66734 13.9697 7.3385 13.9944 7.00906 13.9988C6.05649 14.02 5.11955 13.7544 4.31977 13.2365C4.75799 12.8207 5.24929 12.4647 5.78088 12.1777C6.55897 11.7351 7.27167 11.1864 7.89843 10.5472C8.53847 9.92386 9.08419 9.21051 9.51836 8.42967C9.86595 7.80978 10.305 7.24583 10.8207 6.7568Z" fill="#0F0F0F"/>
</svg>
