<svg width="17" height="16" viewBox="0 0 17 16" fill="none" xmlns="http://www.w3.org/2000/svg">
<path d="M3.77021 9.15411C3.92674 8.65233 4.55152 8.65233 4.70806 9.15411L5.13611 10.5262C5.18622 10.6868 5.29746 10.8132 5.43888 10.8701L6.64692 11.3563C7.08871 11.5341 7.08871 12.2437 6.64693 12.4215L5.43888 12.9077C5.29746 12.9646 5.18622 13.0909 5.13611 13.2516L4.70806 14.6237C4.55152 15.1254 3.92674 15.1254 3.77021 14.6237L3.34215 13.2516C3.29205 13.0909 3.1808 12.9646 3.03938 12.9077L1.83134 12.4215C1.38955 12.2437 1.38955 11.5341 1.83134 11.3563L3.03938 10.8701C3.1808 10.8132 3.29205 10.6868 3.34215 10.5262L3.77021 9.15411Z" fill="currentColor"/>
<path d="M9.99378 1.57201C10.2317 0.809331 11.1813 0.809331 11.4193 1.57201L12.2347 4.186C12.3109 4.43013 12.48 4.62218 12.6949 4.70868L14.9964 5.63491C15.6679 5.90515 15.6679 6.98374 14.9964 7.25398L12.6949 8.1802C12.48 8.26671 12.3109 8.45876 12.2347 8.70289L11.4193 11.3169C11.1813 12.0796 10.2317 12.0796 9.99378 11.3169L9.1783 8.70289C9.10214 8.45876 8.93305 8.26671 8.7181 8.1802L6.41666 7.25398C5.74517 6.98374 5.74517 5.90515 6.41666 5.63491L8.7181 4.70868C8.93305 4.62218 9.10214 4.43013 9.1783 4.186L9.99378 1.57201Z" fill="currentColor"/>
</svg>
