<svg width="17" height="16" viewBox="0 0 17 16" fill="none" xmlns="http://www.w3.org/2000/svg">
<path fill-rule="evenodd" clip-rule="evenodd" d="M2.10417 4H11.7708C11.9311 4 12.0847 4.06365 12.198 4.17696C12.3113 4.29026 12.375 4.44393 12.375 4.60417V5.20833H13.5833C14.2243 5.20833 14.839 5.46295 15.2922 5.91616C15.7454 6.36937 16 6.98406 16 7.625C16 8.26594 15.7454 8.88063 15.2922 9.33384C14.839 9.78705 14.2243 10.0417 13.5833 10.0417H12.2119C11.9932 10.8657 11.5602 11.6254 10.947 12.2386C10.0341 13.1515 8.79642 13.6651 7.50542 13.6667H6.36958C5.07858 13.6651 3.84091 13.1515 2.92803 12.2386C2.01516 11.3258 1.5016 10.0881 1.5 8.79708V4.60417C1.5 4.44393 1.56365 4.29026 1.67696 4.17696C1.79026 4.06365 1.94393 4 2.10417 4ZM12.3748 8.83333H13.5833C13.9038 8.83333 14.2111 8.70603 14.4378 8.47942C14.6644 8.25281 14.7917 7.94547 14.7917 7.625C14.7917 7.30453 14.6644 6.99719 14.4378 6.77058C14.2111 6.54397 13.9038 6.41667 13.5833 6.41667H12.375V8.79708C12.375 8.80917 12.3749 8.82125 12.3748 8.83333Z" fill="currentColor"/>
</svg>
