<svg width="17" height="16" viewBox="0 0 17 16" fill="none" xmlns="http://www.w3.org/2000/svg">
<path fill-rule="evenodd" clip-rule="evenodd" d="M8.87212 1.48834L9.1609 1.09455C8.989 0.968485 8.75519 0.968485 8.58329 1.09455L8.87207 1.48834C8.58329 1.09455 8.58315 1.09465 8.583 1.09476L8.5826 1.09505L8.58146 1.09589L8.57786 1.09855L8.56546 1.10778C8.55493 1.11567 8.53989 1.12701 8.52065 1.14171C8.48218 1.17112 8.42688 1.21403 8.35716 1.26981C8.21777 1.38132 8.02047 1.54447 7.78455 1.75417C7.31335 2.17302 6.68476 2.78055 6.05505 3.53619C4.80632 5.03467 3.5 7.17959 3.5 9.62791C3.5 12.5948 5.90516 15 8.87209 15C11.839 15 14.2442 12.5948 14.2442 9.62791C14.2442 7.17959 12.9379 5.03467 11.6891 3.53619C11.0594 2.78055 10.4308 2.17302 9.95963 1.75417C9.72371 1.54447 9.52641 1.38132 9.38702 1.26981C9.31731 1.21403 9.26201 1.17112 9.22354 1.14171C9.2043 1.12701 9.18926 1.11567 9.17872 1.10778L9.16633 1.09855L9.16273 1.09589L9.16159 1.09505L9.16119 1.09476C9.16103 1.09465 9.1609 1.09455 8.87212 1.48834ZM8.43347 2.4842C8.60514 2.3316 8.75426 2.20594 8.87209 2.10957C8.98993 2.20594 9.13905 2.3316 9.31072 2.4842C9.75522 2.87931 10.3475 3.45201 10.9388 4.16149C12.0629 5.51048 13.136 7.29722 13.2563 9.26398C13.2226 9.27282 13.1868 9.28201 13.149 9.29147C12.8579 9.36425 12.4503 9.45154 11.9859 9.50959C11.0382 9.62805 9.93595 9.61382 9.0905 9.19109C7.98246 8.63707 6.64285 8.65131 5.6371 8.77703C5.20236 8.83137 4.81458 8.90862 4.51199 8.97955C4.71225 7.1252 5.73568 5.44516 6.80541 4.16149C7.39664 3.45201 7.98897 2.87931 8.43347 2.4842Z" fill="#0F0F0F"/>
</svg>
